# xmcd
#
# Track frame offsets:
#	150
#	16354
#	32689
#	49027
#	71040
#	93874
#	111467
#	130583
#	153476
#	172651
#	191451
#	204402
#	218931
#	231149
#	252682
#	267803
#
# Disc length: 3777 seconds
#
# Revision: 0
# Processed by: cddbd v1.5.2PL0 Copyright (c) Steve Scherf et al.
# Submitted via: EasyCDDAExtractor 10.0.6.1
#
DISCID=da0ebf10
DTITLE=raphael - canciones inolvidables
DYEAR=2006
DGENRE=baladas español
TTITLE0=el dia que me quieras
TTITLE1=y volvere
TTITLE2=franceska
TTITLE3=sentado en la vera del camino
TTITLE4=niña
TTITLE5=mi amante niña y compañera
TTITLE6=un mundo si locos
TTITLE7=le llaman jesus
TTITLE8=el oficio de cantor
TTITLE9=estas manos
TTITLE10=la peregrinacion
TTITLE11=el niño que no pudo nacer ni reir
TTITLE12=el gavilan
TTITLE13=corona de espinas
TTITLE14=la casa vieja , la casa nueva
TTITLE15=si estas enamorada
EXTD=
EXTT0=
EXTT1=
EXTT2=
EXTT3=
EXTT4=
EXTT5=
EXTT6=
EXTT7=
EXTT8=
EXTT9=
EXTT10=
EXTT11=
EXTT12=
EXTT13=
EXTT14=
EXTT15=
PLAYORDER=
